<svg xmlns="http://www.w3.org/2000/svg" viewBox="0 0 39.57 20.29"><defs><style>.cls-1{opacity:0.55;}.cls-2{fill:#545455;}.cls-3{fill:#fff;}</style></defs><title>Recurso 9</title><g id="Capa_2" data-name="Capa 2"><g id="Weather_Icons" data-name="Weather Icons"><g class="cls-1"><path class="cls-2" d="M34.65,7.17a7.08,7.08,0,0,0-6.93-6.09h-.08a7.08,7.08,0,0,0-6.71,4.81,5.47,5.47,0,0,0-3.78,3.2,4.51,4.51,0,0,0,0,9H34.47v0a5.48,5.48,0,0,0,.18-10.91Z"/></g><path class="cls-3" d="M25.92,7.26A8.43,8.43,0,0,0,17.67,0h-.1a8.44,8.44,0,0,0-8,5.73,6.51,6.51,0,0,0-4.5,3.82A5.37,5.37,0,0,0,5,20.27v0h20.7v0a6.52,6.52,0,0,0,.21-13Z"/></g></g></svg>