<svg xmlns="http://www.w3.org/2000/svg" viewBox="0 0 39.53 32.4"><defs><style>.cls-1{opacity:0.55;}.cls-2{fill:#fff;}</style></defs><title>rain</title><g id="Capa_2" data-name="Capa 2"><g id="Capa_1-2" data-name="Capa 1"><g id="Capa_2-2" data-name="Capa 2"><g id="Weather_Icons" data-name="Weather Icons"><g class="cls-1"><path class="cls-2" d="M34.66,7.17a7.08,7.08,0,0,0-6.93-6.09h-.08a7.07,7.07,0,0,0-6.71,4.81,5.46,5.46,0,0,0-3.78,3.2,4.51,4.51,0,0,0,0,9H34.48a5.48,5.48,0,0,0,.18-10.91Z"/></g><path class="cls-2" d="M25.93,7.26A8.43,8.43,0,0,0,17.68,0h-.1a8.44,8.44,0,0,0-8,5.73,6.51,6.51,0,0,0-4.5,3.82A5.37,5.37,0,0,0,5,20.27h20.7a6.52,6.52,0,0,0,.21-13Z"/></g></g><path class="cls-2" d="M15.27,21.53A.46.46,0,0,0,15,21.4h-.18l-5,1.35-.42.11a3.76,3.76,0,0,0-1.44.88A3.65,3.65,0,0,0,10.45,30h0A3.59,3.59,0,0,0,13,28.92,3.45,3.45,0,0,0,14,27.47l.12-.44,1.35-5a.54.54,0,0,0,0-.18.43.43,0,0,0-.12-.32Zm16,1a.44.44,0,0,0-.32-.06h-.18l-5,1.35-.43.11a3.64,3.64,0,0,0,2.15,7,3.69,3.69,0,0,0,1.55-1,3.44,3.44,0,0,0,.88-1.43l.12-.44,1.35-5a.54.54,0,0,0,0-.18.39.39,0,0,0-.12-.32Zm-10.93,4.6h0a.38.38,0,0,0-.25-.09H20l-3,.81-.26.07A2.28,2.28,0,1,0,19,31.72a2.15,2.15,0,0,0,.55-.9l.08-.27.82-3a.24.24,0,0,0,0-.12.36.36,0,0,0-.09-.24Z"/></g></g></svg>