<svg xmlns="http://www.w3.org/2000/svg" viewBox="0 0 31.79 33.18"><defs><style>.cls-1{fill:#fff;}</style></defs><title>Recurso 5</title><g id="Capa_2" data-name="Capa 2"><g id="Weather_Icons" data-name="Weather Icons"><path class="cls-1" d="M11.32,16.06a.45.45,0,0,0-.32-.13.57.57,0,0,0-.18,0l-5,1.35-.42.11a3.72,3.72,0,0,0-1.44.88A3.65,3.65,0,0,0,6.5,24.52h0a3.63,3.63,0,0,0,2.57-1.07A3.52,3.52,0,0,0,10,22l.12-.44,1.35-5a1.1,1.1,0,0,0,0-.18.45.45,0,0,0-.12-.32Zm16,1A.44.44,0,0,0,27,17a.57.57,0,0,0-.18,0l-5,1.35-.43.11a3.72,3.72,0,0,0-1.44.88,3.64,3.64,0,1,0,6,3.72l.11-.44,1.35-5a.55.55,0,0,0,0-.18.45.45,0,0,0-.12-.32Z"/><polygon class="cls-1" points="16.74 20.98 11.89 20.98 10.04 26.57 13.38 26.57 11.41 33.01 11.65 33.18 18.48 23.93 15.11 23.93 16.74 20.98"/><path class="cls-1" d="M25.92,7.26A8.43,8.43,0,0,0,17.67,0h-.1a8.44,8.44,0,0,0-8,5.73,6.51,6.51,0,0,0-4.5,3.82A5.37,5.37,0,0,0,2.43,19.4a4.27,4.27,0,0,1,1-1.59,4.31,4.31,0,0,1,1.71-1h0l.42-.11,5-1.35a1.34,1.34,0,0,1,.35,0,1.13,1.13,0,0,1,1.15,1.15,1.48,1.48,0,0,1-.05.35l-1,3.55h7.35a4.25,4.25,0,0,1,.95-1.44,4.31,4.31,0,0,1,1.71-1.05h0l.43-.11,5-1.35a1.3,1.3,0,0,1,.36,0,1.13,1.13,0,0,1,1.14,1.15,1.48,1.48,0,0,1-.05.35l-.56,2.09a6.52,6.52,0,0,0-1.6-12.61Z"/></g></g></svg>