<svg xmlns="http://www.w3.org/2000/svg" viewBox="0 0 30.06 30.05"><defs><style>.cls-1{fill:#fff;}</style></defs><title>Recurso 1</title><g id="Capa_2" data-name="Capa 2"><g id="Weather_Icons" data-name="Weather Icons"><path class="cls-1" d="M28.42,12.61H27.05a12.28,12.28,0,0,0-1.81-4.38l1-1a1.6,1.6,0,0,0,.48-1.15A1.64,1.64,0,0,0,26.2,5l-1.09-1.1L25,4l.13-.12a1.64,1.64,0,0,0-2.32,0l-1,1A12.15,12.15,0,0,0,17.44,3V1.63A1.63,1.63,0,0,0,15.8,0H14.25a1.63,1.63,0,0,0-1.63,1.63V3A12.27,12.27,0,0,0,8.23,4.82l-1-1A1.64,1.64,0,0,0,5,3.85H5L3.85,5a1.68,1.68,0,0,0-.48,1.16,1.66,1.66,0,0,0,.48,1.15l1,1A12.11,12.11,0,0,0,3,12.61H1.64A1.65,1.65,0,0,0,0,14.25V15.8a1.64,1.64,0,0,0,1.64,1.64H3a12,12,0,0,0,1.81,4.38l-1,1a1.63,1.63,0,0,0,0,2.31L5,26.2a1.64,1.64,0,0,0,1.16.48h0a1.64,1.64,0,0,0,1.16-.48l1-1a12.12,12.12,0,0,0,4.38,1.82v1.37a1.65,1.65,0,0,0,1.64,1.63H15.8a1.63,1.63,0,0,0,1.64-1.63V27.05a12,12,0,0,0,4.38-1.82l1,1a1.64,1.64,0,0,0,2.32,0l1.09-1.1a1.63,1.63,0,0,0,0-2.31l-1-1a12.21,12.21,0,0,0,1.81-4.38h1.37a1.64,1.64,0,0,0,1.64-1.64V14.25A1.65,1.65,0,0,0,28.42,12.61Z"/></g></g></svg>