<svg xmlns="http://www.w3.org/2000/svg" viewBox="0 0 31.41 26.68"><defs><style>.cls-1{fill:#fff;}</style></defs><title>Recurso 3</title><g id="Capa_2" data-name="Capa 2"><g id="Weather_Icons" data-name="Weather Icons"><path class="cls-1" d="M24.86,14.18a8.08,8.08,0,0,0-7.91-7h-.1a8.08,8.08,0,0,0-7.66,5.5,6.25,6.25,0,0,0-4.32,3.66A5.16,5.16,0,0,0,4.8,26.66v0H24.66v0a6.26,6.26,0,0,0,.2-12.47Z"/><path class="cls-1" d="M30,11.12H28.76a10.78,10.78,0,0,0-1.59-3.84L28,6.44a1.49,1.49,0,0,0,.43-1,1.47,1.47,0,0,0-.43-1l-1-1-.12.12L27,3.4A1.47,1.47,0,0,0,26,3a1.49,1.49,0,0,0-1,.43l-.84.84a10.71,10.71,0,0,0-3.84-1.59V1.46A1.46,1.46,0,0,0,18.83,0H17.46A1.47,1.47,0,0,0,16,1.46V2.65a10.78,10.78,0,0,0-3.84,1.59l-.84-.84a1.47,1.47,0,0,0-1-.43,1.49,1.49,0,0,0-1,.43h0l-1,1a1.46,1.46,0,0,0-.42,1,1.48,1.48,0,0,0,.42,1l.84.84a10.71,10.71,0,0,0-1.59,3.84H6.35a1.46,1.46,0,0,0-1.47,1.46V14a1.36,1.36,0,0,0,.19.7,7,7,0,0,1,3.59-2.52,8.78,8.78,0,0,1,8.19-5.61H17a8.85,8.85,0,0,1,8.5,7,6.92,6.92,0,0,1,3.61,1.85H30A1.47,1.47,0,0,0,31.41,14V12.58A1.46,1.46,0,0,0,30,11.12Z"/></g></g></svg>