<svg xmlns="http://www.w3.org/2000/svg" viewBox="0 0 31.79 25.54"><defs><style>.cls-1{fill:#fff;}</style></defs><title>Niebla</title><g id="Capa_2" data-name="Capa 2"><g id="Weather_Icons" data-name="Weather Icons"><path class="cls-1" d="M15.41,16.28V15.5a.54.54,0,0,0-.53-.53H3.34a.53.53,0,0,0-.53.53v.78a.53.53,0,0,0,.53.53H14.88A.54.54,0,0,0,15.41,16.28Zm1,7.43H4.9a.53.53,0,0,0-.53.53V25a.53.53,0,0,0,.53.53H16.44A.52.52,0,0,0,17,25v-.77A.52.52,0,0,0,16.44,23.71Zm-.31-2.62H23.7a.52.52,0,0,0,.52-.53v-.78a.52.52,0,0,0-.52-.53H16.13a.53.53,0,0,0-.53.53v.78A.53.53,0,0,0,16.13,21.09Zm11.45,2.62H20a.53.53,0,0,0-.53.53V25a.53.53,0,0,0,.53.53h7.57a.53.53,0,0,0,.53-.53v-.77A.53.53,0,0,0,27.58,23.71ZM7.21,19.25a.52.52,0,0,0-.52.52v.8a.52.52,0,0,0,.52.52h4.56a.52.52,0,0,0,.52-.52v-.8a.52.52,0,0,0-.52-.52ZM29,15H24.43a.52.52,0,0,0-.52.52v.8a.52.52,0,0,0,.52.52H29a.51.51,0,0,0,.51-.52v-.8A.52.52,0,0,0,29,15ZM18.66,16.81H20a.52.52,0,0,0,.52-.52v-.8A.52.52,0,0,0,20,15H18.66a.52.52,0,0,0-.52.52v.8A.52.52,0,0,0,18.66,16.81Z"/><path class="cls-1" d="M25.92,7.26A8.42,8.42,0,0,0,17.67,0h-.1a8.44,8.44,0,0,0-8,5.73,6.54,6.54,0,0,0-4.5,3.82A5.37,5.37,0,0,0,5,20.27v0H6v-.52a1.21,1.21,0,0,1,1.21-1.21h4.56A1.21,1.21,0,0,1,13,19.77v.52H14.9v-.51a1.22,1.22,0,0,1,1.22-1.22H23.7a1.22,1.22,0,0,1,1.22,1.22v.51h.79v0a6.52,6.52,0,0,0,.21-13Zm-9.82,9a1.22,1.22,0,0,1-1.22,1.22H3.34a1.22,1.22,0,0,1-1.22-1.22V15.5a1.22,1.22,0,0,1,1.22-1.22H14.87A1.23,1.23,0,0,1,16.1,15.5Zm5.06,0A1.21,1.21,0,0,1,20,17.5H18.66a1.21,1.21,0,0,1-1.21-1.21v-.8a1.21,1.21,0,0,1,1.21-1.21H20a1.21,1.21,0,0,1,1.21,1.21ZM29,17.5H24.43a1.21,1.21,0,0,1-1.21-1.21v-.8a1.21,1.21,0,0,1,1.21-1.21H29a1.21,1.21,0,0,1,1.2,1.21v.8A1.21,1.21,0,0,1,29,17.5Z"/></g></g></svg>