<svg xmlns="http://www.w3.org/2000/svg" viewBox="0 0 31.79 28.78"><defs><style>.cls-1{fill:#fff;}</style></defs><title>Recurso 8</title><g id="Capa_2" data-name="Capa 2"><g id="Weather_Icons" data-name="Weather Icons"><path class="cls-1" d="M17.49,26.9l-.26-.15.14,0a.23.23,0,0,0,.17-.22s0,0,0,0l-.09-.34a.23.23,0,0,0-.22-.17h-.06l-.89.24-.47-.27.47-.26.89.24h.06a.22.22,0,0,0,.22-.16l.09-.33s0,0,0-.06a.23.23,0,0,0-.17-.22l-.14,0,.26-.15a.23.23,0,0,0,.11-.2.26.26,0,0,0,0-.11l-.17-.29a.21.21,0,0,0-.19-.11l-.13,0-.24.14,0-.13v-.06a.23.23,0,0,0-.17-.22l-.32-.08h-.06a.23.23,0,0,0-.22.17l-.24.89-.46.27v-.49l.66-.66a.24.24,0,0,0,0-.32l-.24-.24a.23.23,0,0,0-.16-.06.23.23,0,0,0-.17.07l-.09.09V23.3a.23.23,0,0,0-.23-.23h-.33a.23.23,0,0,0-.23.23v.33l-.09-.1a.27.27,0,0,0-.16-.06.23.23,0,0,0-.17.07l-.23.23a.21.21,0,0,0-.07.16.17.17,0,0,0,0,.1.26.26,0,0,0-.2-.1h-.07l-.3.09a.21.21,0,0,0-.17.22s0,0,0,.07l0,.12-.29-.17a.21.21,0,0,0-.12,0,.22.22,0,0,0-.19.12l-.17.28a.23.23,0,0,0,0,.11.23.23,0,0,0,.11.2l.29.17-.13,0a.21.21,0,0,0-.17.21.2.2,0,0,0,0,.07l.09.32a.21.21,0,0,0,.22.16h0l.91-.24.43.24-.43.25-.89-.24h-.06a.22.22,0,0,0-.22.18l-.09.31s0,0,0,.06a.23.23,0,0,0,.17.22l.13,0-.29.17a.23.23,0,0,0-.11.19.27.27,0,0,0,0,.12l.17.29a.23.23,0,0,0,.19.11.2.2,0,0,0,.11,0l.3-.17,0,.13v.06a.21.21,0,0,0,.16.22l.33.09h.05a.22.22,0,0,0,.22-.17l.24-.9.43-.24v.53L14,27.8a.2.2,0,0,0-.07.16.23.23,0,0,0,.07.16l.23.23a.23.23,0,0,0,.17.07.22.22,0,0,0,.15-.06l.1-.1v.29a.23.23,0,0,0,.23.23h.33a.23.23,0,0,0,.23-.23v-.29l.1.09a.2.2,0,0,0,.16.07.23.23,0,0,0,.16-.06l.23-.24a.23.23,0,0,0,0-.32l-.66-.66v-.53l.46.27.24.89a.23.23,0,0,0,.22.17h.05l.34-.09a.22.22,0,0,0,.16-.22v-.05l0-.14.25.15a.27.27,0,0,0,.12,0,.21.21,0,0,0,.19-.11l.17-.29a.27.27,0,0,0,0-.12.21.21,0,0,0-.11-.19Zm-2.87-1.66L14.19,25,14,24.1s0,0,0,0l0,0,.65.66Z"/><path class="cls-1" d="M12.13,18.29a.35.35,0,0,0,0-.14l-.33-.57a.28.28,0,0,0-.39-.1l-.84.49.17-.65a.2.2,0,0,0,0-.07.27.27,0,0,0-.2-.27l-.64-.17H9.81a.28.28,0,0,0-.27.21l-.49,1.82-1.22.7V18.2l1.33-1.33a.27.27,0,0,0,.09-.2.28.28,0,0,0-.09-.2L8.7,16a.29.29,0,0,0-.19-.08A.32.32,0,0,0,8.3,16l-.47.48V15.43a.27.27,0,0,0-.28-.28H6.9a.27.27,0,0,0-.28.28v1.06L6.14,16A.27.27,0,0,0,6,15.93a.32.32,0,0,0-.21.08l-.46.47a.27.27,0,0,0-.08.19.3.3,0,0,0,.08.2L6.62,18.2v1.33l-1.16-.66L5,17.05a.27.27,0,0,0-.27-.21H4.62L4,17a.28.28,0,0,0-.21.27.31.31,0,0,0,0,.08L4,18l-.92-.53a.23.23,0,0,0-.14,0,.28.28,0,0,0-.24.14l-.33.57a.23.23,0,0,0,0,.14.27.27,0,0,0,.14.24l.92.53-.65.17a.31.31,0,0,0-.21.27.37.37,0,0,0,0,.09l.17.62a.27.27,0,0,0,.26.21H3l1.83-.49L6,20.58l-1.15.67L3,20.76H3a.29.29,0,0,0-.27.21l-.17.63v.07a.26.26,0,0,0,.2.27l.65.18-.92.53a.28.28,0,0,0-.14.24.23.23,0,0,0,0,.14l.33.57a.28.28,0,0,0,.24.14.23.23,0,0,0,.14,0L4,23.16l-.18.65s0,0,0,.07a.28.28,0,0,0,.21.27l.64.17h.07A.29.29,0,0,0,5,24.12l.48-1.82,1.16-.66v1.41L5.28,24.38a.32.32,0,0,0-.08.2.27.27,0,0,0,.08.19l.47.47a.28.28,0,0,0,.2.08.27.27,0,0,0,.19-.08l.48-.47v1A.27.27,0,0,0,6.9,26h.65a.27.27,0,0,0,.28-.28v-1l.48.47a.27.27,0,0,0,.19.08.3.3,0,0,0,.2-.08l.46-.46a.28.28,0,0,0,.09-.2.27.27,0,0,0-.09-.2L7.83,23.05V21.64l1.22.7.49,1.82a.29.29,0,0,0,.27.21h.06l.65-.17a.28.28,0,0,0,.2-.27.17.17,0,0,0,0-.07l-.17-.65.85.49a.23.23,0,0,0,.14,0,.28.28,0,0,0,.24-.14L12.1,23a.39.39,0,0,0,0-.14.26.26,0,0,0-.14-.24l-.84-.49L11.8,22a.29.29,0,0,0,.2-.27.15.15,0,0,0,0-.07L11.82,21a.27.27,0,0,0-.27-.21h-.08l-1.81.49-1.22-.71,1.22-.7,1.82.49h.07a.28.28,0,0,0,.27-.21l.17-.63a.2.2,0,0,0,0-.07.29.29,0,0,0-.2-.28L11.15,19l.84-.49A.24.24,0,0,0,12.13,18.29Z"/><path class="cls-1" d="M27.28,22.15l.65-.17a.29.29,0,0,0,.2-.27v-.07L28,21a.29.29,0,0,0-.27-.21h-.08l-1.82.49-1.22-.71,1.22-.7,1.82.49h.08a.3.3,0,0,0,.27-.21l.17-.63v-.07a.29.29,0,0,0-.2-.28L27.28,19l.85-.49a.28.28,0,0,0,.14-.24.25.25,0,0,0,0-.14l-.33-.57a.27.27,0,0,0-.24-.14.28.28,0,0,0-.15,0l-.84.49.18-.65s0-.05,0-.07a.28.28,0,0,0-.21-.27L26,16.81h-.08a.28.28,0,0,0-.27.21l-.49,1.82-1.22.7V18.2l1.34-1.33a.3.3,0,0,0,.08-.2.32.32,0,0,0-.08-.2L24.83,16a.28.28,0,0,0-.2-.08.27.27,0,0,0-.19.08l-.48.48V15.43a.27.27,0,0,0-.28-.28H23a.27.27,0,0,0-.28.28v1.06L22.27,16a.27.27,0,0,0-.19-.08.3.3,0,0,0-.2.08l-.47.47a.27.27,0,0,0-.08.19.3.3,0,0,0,.08.2l1.34,1.33v1.33l-1.15-.66-.49-1.82a.28.28,0,0,0-.27-.21h-.09l-.62.17a.27.27,0,0,0-.2.27.25.25,0,0,0,0,.08l.17.64-.92-.53a.23.23,0,0,0-.14,0,.28.28,0,0,0-.24.14l-.33.57a.22.22,0,0,0,0,.14.24.24,0,0,0,.13.24l.92.53-.65.17a.29.29,0,0,0-.2.27.31.31,0,0,0,0,.09l.16.62a.29.29,0,0,0,.28.21h.06L21,19.92l1.15.66L21,21.25l-1.82-.49H19.1a.29.29,0,0,0-.28.21l-.16.63a.17.17,0,0,0,0,.07.27.27,0,0,0,.2.27l.65.18-.92.53a.27.27,0,0,0-.13.24.17.17,0,0,0,0,.14l.33.57a.28.28,0,0,0,.24.14.23.23,0,0,0,.14,0l.92-.53-.17.65a.15.15,0,0,0,0,.07.27.27,0,0,0,.2.27l.64.17h.07a.29.29,0,0,0,.27-.21l.49-1.82,1.15-.66v1.41l-1.34,1.33a.32.32,0,0,0-.08.2.27.27,0,0,0,.08.19l.47.47a.3.3,0,0,0,.2.08.27.27,0,0,0,.19-.08l.48-.47v1A.27.27,0,0,0,23,26h.65a.27.27,0,0,0,.28-.28v-1l.48.47a.27.27,0,0,0,.19.08.28.28,0,0,0,.2-.08l.47-.46a.32.32,0,0,0,.08-.2.27.27,0,0,0-.09-.2L24,23.05V21.64l1.22.7.49,1.82a.29.29,0,0,0,.27.21H26l.64-.17a.28.28,0,0,0,.21-.27s0-.05,0-.07l-.18-.65.85.49a.23.23,0,0,0,.14,0,.27.27,0,0,0,.24-.14l.33-.57a.27.27,0,0,0,0-.14.28.28,0,0,0-.14-.24Z"/><path class="cls-1" d="M25.92,7.26A8.43,8.43,0,0,0,17.67,0h-.1a8.44,8.44,0,0,0-8,5.73,6.54,6.54,0,0,0-4.5,3.82A5.37,5.37,0,0,0,1.94,19s0,0,0,0a1,1,0,0,1-.33-.74,1,1,0,0,1,.13-.48l.33-.56a1,1,0,0,1,.84-.49,1.06,1.06,0,0,1,.31.05,1,1,0,0,1,.59-.45l.6-.16a.67.67,0,0,1,.24,0A1.09,1.09,0,0,1,4.79,16l.47-.46a1,1,0,0,1,.68-.28,1,1,0,0,1,.95-.79h.66a1,1,0,0,1,1,.79,1,1,0,0,1,.68.28l.46.46a.69.69,0,0,1,.11.13h.05a1.07,1.07,0,0,1,.25,0l.64.17a1,1,0,0,1,.59.47,1,1,0,0,1,.24,0,1,1,0,0,1,.84.48l.33.57a1,1,0,0,1,.13.49,1,1,0,0,1-.27.67,1,1,0,0,1,.14.51,1,1,0,0,1,0,.24l-.16.58h5.62L18,19.78a1.26,1.26,0,0,1,0-.28,1,1,0,0,1,.13-.48,1,1,0,0,1-.2-1.22l.33-.56a1,1,0,0,1,.84-.49,1.13,1.13,0,0,1,.32.05.94.94,0,0,1,.58-.45l.61-.16a.59.59,0,0,1,.23,0,1.09,1.09,0,0,1,.13-.17l.47-.46a1,1,0,0,1,.68-.28,1,1,0,0,1,1-.79h.65a1,1,0,0,1,1,.79,1,1,0,0,1,.68.28l.47.46a1.47,1.47,0,0,1,.1.13h.05a1,1,0,0,1,.25,0l.64.17a1,1,0,0,1,.6.47.85.85,0,0,1,.23,0,1,1,0,0,1,.84.48l.33.57a1,1,0,0,1,.13.49,1,1,0,0,1-.27.67,1.36,1.36,0,0,1,.11.28,6.53,6.53,0,0,0-2.88-12Z"/></g></g></svg>